<svg version="1.1" id="Layer_1" xmlns="http://www.w3.org/2000/svg" xmlns:xlink="http://www.w3.org/1999/xlink" x="0px" y="0px"
	 width="100%" viewBox="0 0 1500 1500" enable-background="new 0 0 1500 1500" xml:space="preserve">
<path fill="#FFFFFF" opacity="1.000000" stroke="none" 
	d="
M945.000000,1501.000000 
	C630.000061,1501.000000 315.500122,1501.000000 1.000127,1501.000000 
	C1.000084,1001.000122 1.000084,501.000305 1.000042,1.000328 
	C500.999756,1.000219 1000.999512,1.000219 1500.999512,1.000109 
	C1500.999634,500.999664 1500.999634,1000.999329 1500.999756,1500.999512 
	C1315.833374,1501.000000 1130.666626,1501.000000 945.000000,1501.000000 
M246.678894,991.773499 
	C257.803406,1026.709717 290.156677,1050.976318 326.737640,1051.421143 
	C350.862030,1051.714600 371.478424,1042.902222 388.730713,1026.138794 
	C401.914520,1013.328613 417.643921,1006.627197 436.034363,1007.199219 
	C453.665222,1007.747742 468.118195,1015.402893 480.779266,1027.602539 
	C497.603058,1043.813477 517.792542,1052.686035 541.520874,1051.940430 
	C554.692993,1051.526367 567.456543,1053.430176 579.737305,1057.980103 
	C624.782593,1074.668335 652.957947,1106.390991 662.814575,1153.491699 
	C665.136780,1164.588989 664.378235,1176.300171 665.526489,1187.679443 
	C671.439453,1246.277710 733.227295,1282.731934 786.996826,1257.013184 
	C816.092590,1243.096313 832.599915,1219.523926 836.488098,1187.499268 
	C837.824219,1176.494507 837.011963,1165.173950 838.920227,1154.302856 
	C849.132385,1096.127197 901.227478,1052.710205 960.431824,1051.917236 
	C969.136536,1051.800659 977.971985,1050.252075 986.469055,1048.209839 
	C1002.828308,1044.277832 1015.466858,1034.057495 1027.494263,1022.741821 
	C1037.794678,1013.051025 1050.636108,1008.712402 1064.686279,1008.012146 
	C1084.690063,1007.015137 1100.830444,1014.878418 1115.397949,1028.322876 
	C1141.136719,1052.077637 1171.282959,1058.453857 1204.227661,1046.278931 
	C1239.167480,1033.366821 1262.182129,997.825806 1259.252930,958.897766 
	C1255.942871,914.907593 1218.513794,879.554077 1174.393799,879.418701 
	C1154.064941,879.356384 1134.824097,874.971619 1116.797852,865.620056 
	C1089.277222,851.343018 1069.630371,829.713135 1057.534546,801.219177 
	C1055.134277,795.564819 1055.462524,795.338562 1061.746704,794.831482 
	C1082.026245,793.195007 1099.162720,799.643372 1113.932007,813.717529 
	C1137.399292,836.080444 1165.262573,844.055542 1196.636353,835.282288 
	C1226.729248,826.867249 1246.743652,806.965759 1255.664673,776.946167 
	C1264.842285,746.063110 1259.986694,717.443359 1239.545776,691.957275 
	C1234.152832,685.233215 1227.891846,678.943237 1223.805054,671.481445 
	C1209.882568,646.062256 1214.693237,616.450134 1235.399780,594.625427 
	C1266.520142,561.824280 1268.072021,512.063721 1239.043335,477.797791 
	C1207.355469,440.393005 1150.110962,437.587524 1114.936890,471.715210 
	C1098.769409,487.401917 1079.784180,494.831085 1057.179077,490.892578 
	C1047.584717,489.220947 1038.619995,486.392365 1032.365112,477.673553 
	C1028.936890,472.894836 1024.270752,468.651001 1019.353149,465.385254 
	C1013.471313,461.479156 1010.354370,456.093201 1008.328369,449.893707 
	C999.585938,423.141846 1005.595032,399.917236 1024.995728,379.666565 
	C1040.160522,363.837250 1047.821533,344.480194 1048.092163,322.726532 
	C1048.446655,294.229736 1037.536743,270.448425 1014.970398,252.717438 
	C989.989929,233.089676 961.513123,229.000214 932.515259,240.047409 
	C896.220337,253.874588 877.689880,282.203217 876.571899,320.943237 
	C875.406677,361.320404 860.529663,395.026550 828.725342,419.930389 
	C789.724548,450.469360 746.478149,457.145752 701.559387,434.934875 
	C655.871643,412.343842 632.362000,374.101349 630.587402,323.003326 
	C629.618164,295.096161 620.023315,271.528778 597.993103,253.554214 
	C565.408386,226.968140 517.454895,228.565674 486.460968,257.439117 
	C451.513275,289.995819 449.711365,345.120087 482.459595,379.851532 
	C504.601654,403.334534 509.261261,432.489929 494.227570,459.588074 
	C483.393921,479.115662 466.202087,489.962677 443.856873,491.822357 
	C423.306671,493.532684 406.345032,485.786713 391.590759,471.680054 
	C371.259521,452.241150 346.617340,444.437134 319.030609,449.156586 
	C274.186066,456.828400 244.569458,496.890747 247.546356,539.950500 
	C248.852036,558.836365 255.257782,575.816101 267.879944,589.787415 
	C279.528748,602.681396 289.260681,616.213989 290.733093,634.074158 
	C292.307922,653.176392 288.599243,671.459900 273.782043,684.235535 
	C240.350128,713.061218 231.346466,763.155640 257.980347,801.385864 
	C276.467346,827.922180 308.977112,841.924500 340.846619,837.046326 
	C360.187927,834.085754 376.353546,825.110168 390.218628,811.716553 
	C400.815186,801.480408 413.279327,795.443787 427.923187,794.260132 
	C433.763062,793.788025 439.673004,794.182495 445.935272,794.182495 
	C445.532440,796.416931 445.529663,797.280090 445.218445,798.012085 
	C443.851105,801.227905 442.576630,804.502197 440.943237,807.582886 
	C417.006989,852.728943 379.841675,876.798218 328.415070,878.248352 
	C308.055237,878.822449 289.764404,885.008850 273.818085,898.145569 
	C246.642487,920.532959 235.523605,957.699158 246.678894,991.773499 
z"/>
<path fill="#BE1A35" opacity="1.000000" stroke="none" 
	d="
M246.587097,991.382629 
	C235.523605,957.699158 246.642487,920.532959 273.818085,898.145569 
	C289.764404,885.008850 308.055237,878.822449 328.415070,878.248352 
	C379.841675,876.798218 417.006989,852.728943 440.943237,807.582886 
	C442.576630,804.502197 443.851105,801.227905 445.218445,798.012085 
	C445.529663,797.280090 445.532440,796.416931 445.935272,794.182495 
	C439.673004,794.182495 433.763062,793.788025 427.923187,794.260132 
	C413.279327,795.443787 400.815186,801.480408 390.218628,811.716553 
	C376.353546,825.110168 360.187927,834.085754 340.846619,837.046326 
	C308.977112,841.924500 276.467346,827.922180 257.980347,801.385864 
	C231.346466,763.155640 240.350128,713.061218 273.782043,684.235535 
	C288.599243,671.459900 292.307922,653.176392 290.733093,634.074158 
	C289.260681,616.213989 279.528748,602.681396 267.879944,589.787415 
	C255.257782,575.816101 248.852036,558.836365 247.546356,539.950500 
	C244.569458,496.890747 274.186066,456.828400 319.030609,449.156586 
	C346.617340,444.437134 371.259521,452.241150 391.590759,471.680054 
	C406.345032,485.786713 423.306671,493.532684 443.856873,491.822357 
	C466.202087,489.962677 483.393921,479.115662 494.227570,459.588074 
	C509.261261,432.489929 504.601654,403.334534 482.459595,379.851532 
	C449.711365,345.120087 451.513275,289.995819 486.460968,257.439117 
	C517.454895,228.565674 565.408386,226.968140 597.993103,253.554214 
	C620.023315,271.528778 629.618164,295.096161 630.587402,323.003326 
	C632.362000,374.101349 655.871643,412.343842 701.559387,434.934875 
	C746.478149,457.145752 789.724548,450.469360 828.725342,419.930389 
	C860.529663,395.026550 875.406677,361.320404 876.571899,320.943237 
	C877.689880,282.203217 896.220337,253.874588 932.515259,240.047409 
	C961.513123,229.000214 989.989929,233.089676 1014.970398,252.717438 
	C1037.536743,270.448425 1048.446655,294.229736 1048.092163,322.726532 
	C1047.821533,344.480194 1040.160522,363.837250 1024.995728,379.666565 
	C1005.595032,399.917236 999.585938,423.141846 1008.328369,449.893707 
	C1010.354370,456.093201 1013.471313,461.479156 1019.353149,465.385254 
	C1024.270752,468.651001 1028.936890,472.894836 1032.365112,477.673553 
	C1038.619995,486.392365 1047.584717,489.220947 1057.179077,490.892578 
	C1079.784180,494.831085 1098.769409,487.401917 1114.936890,471.715210 
	C1150.110962,437.587524 1207.355469,440.393005 1239.043335,477.797791 
	C1268.072021,512.063721 1266.520142,561.824280 1235.399780,594.625427 
	C1214.693237,616.450134 1209.882568,646.062256 1223.805054,671.481445 
	C1227.891846,678.943237 1234.152832,685.233215 1239.545776,691.957275 
	C1259.986694,717.443359 1264.842285,746.063110 1255.664673,776.946167 
	C1246.743652,806.965759 1226.729248,826.867249 1196.636353,835.282288 
	C1165.262573,844.055542 1137.399292,836.080444 1113.932007,813.717529 
	C1099.162720,799.643372 1082.026245,793.195007 1061.746704,794.831482 
	C1055.462524,795.338562 1055.134277,795.564819 1057.534546,801.219177 
	C1069.630371,829.713135 1089.277222,851.343018 1116.797852,865.620056 
	C1134.824097,874.971619 1154.064941,879.356384 1174.393799,879.418701 
	C1218.513794,879.554077 1255.942871,914.907593 1259.252930,958.897766 
	C1262.182129,997.825806 1239.167480,1033.366821 1204.227661,1046.278931 
	C1171.282959,1058.453857 1141.136719,1052.077637 1115.397949,1028.322876 
	C1100.830444,1014.878418 1084.690063,1007.015137 1064.686279,1008.012146 
	C1050.636108,1008.712402 1037.794678,1013.051025 1027.494263,1022.741821 
	C1015.466858,1034.057495 1002.828308,1044.277832 986.469055,1048.209839 
	C977.971985,1050.252075 969.136536,1051.800659 960.431824,1051.917236 
	C901.227478,1052.710205 849.132385,1096.127197 838.920227,1154.302856 
	C837.011963,1165.173950 837.824219,1176.494507 836.488098,1187.499268 
	C832.599915,1219.523926 816.092590,1243.096313 786.996826,1257.013184 
	C733.227295,1282.731934 671.439453,1246.277710 665.526489,1187.679443 
	C664.378235,1176.300171 665.136780,1164.588989 662.814575,1153.491699 
	C652.957947,1106.390991 624.782593,1074.668335 579.737305,1057.980103 
	C567.456543,1053.430176 554.692993,1051.526367 541.520874,1051.940430 
	C517.792542,1052.686035 497.603058,1043.813477 480.779266,1027.602539 
	C468.118195,1015.402893 453.665222,1007.747742 436.034363,1007.199219 
	C417.643921,1006.627197 401.914520,1013.328613 388.730713,1026.138794 
	C371.478424,1042.902222 350.862030,1051.714600 326.737640,1051.421143 
	C290.156677,1050.976318 257.803406,1026.709717 246.587097,991.382629 
M375.629791,650.664734 
	C378.246307,667.332092 386.105988,680.971130 399.142456,691.689697 
	C422.398254,710.810547 459.779175,709.713135 479.853485,689.752380 
	C483.963806,685.665344 488.536957,681.951172 493.279175,678.607483 
	C520.758118,659.231934 550.021790,655.641907 580.913696,669.558044 
	C593.569641,675.259277 604.519348,683.490662 612.280945,695.121033 
	C621.242249,708.549316 627.094238,723.141235 628.540833,739.576172 
	C631.002075,767.539490 623.302002,791.681702 603.947205,812.157776 
	C595.750732,820.828979 585.058594,825.526917 574.757507,830.501892 
	C563.358765,836.007141 550.820618,837.970520 538.018738,838.186829 
	C530.766235,838.309387 523.446228,839.098145 516.305969,840.403687 
	C485.518677,846.032654 460.767090,861.884399 441.231262,886.027893 
	C432.855194,896.379517 426.431824,907.937988 421.676636,921.268921 
	C425.939331,921.810486 429.827576,922.851440 433.667908,922.697510 
	C450.099884,922.038879 465.060791,917.289673 477.103058,905.493286 
	C497.189636,885.816833 520.820312,875.931091 549.246216,878.996765 
	C565.361572,880.734741 579.845825,886.596985 592.381104,896.782959 
	C598.553650,901.798706 604.740906,907.108704 609.630127,913.304626 
	C614.614014,919.620422 619.601685,926.743530 621.713501,934.314819 
	C624.492920,944.279663 625.177673,955.003723 625.524414,965.442444 
	C627.192932,1015.679321 649.970398,1052.921753 693.581238,1077.556030 
	C697.827942,1079.954834 702.502930,1081.595459 707.499207,1083.819580 
	C709.914246,1070.605591 709.091553,1058.276245 704.227112,1047.204712 
	C699.888062,1037.328735 692.576111,1028.775146 686.731506,1019.539734 
	C680.803772,1010.172852 672.765015,1002.187805 669.603577,991.012573 
	C660.636353,959.314758 666.426514,930.782959 688.473633,906.392029 
	C708.574707,884.154114 734.308105,875.019836 763.964844,879.342529 
	C782.540527,882.050049 798.890869,889.606445 811.498840,904.754211 
	C821.581665,916.868164 829.972046,929.468811 833.617615,944.947205 
	C840.064270,972.318542 834.499268,997.061218 817.435303,1019.272766 
	C811.288452,1027.273926 803.672546,1034.034302 799.506226,1043.675415 
	C793.856323,1056.749390 792.050781,1069.962280 794.693359,1084.278320 
	C796.078247,1083.898193 797.038208,1083.737305 797.917297,1083.378296 
	C814.158142,1076.746216 828.420166,1067.214966 840.565063,1054.499390 
	C863.625366,1030.355225 875.855530,1001.736023 876.330627,968.262512 
	C876.601746,949.166382 881.284241,931.488098 892.568970,915.822388 
	C909.347595,892.529846 932.265198,880.209045 960.761780,879.431030 
	C983.435059,878.811951 1003.649536,886.497498 1020.065491,902.378906 
	C1035.642700,917.448853 1053.463379,925.397034 1075.431396,923.094971 
	C1079.509033,922.667664 1080.820068,921.896362 1079.043701,917.689758 
	C1065.676270,886.033875 1043.517090,863.015015 1012.136047,848.901733 
	C994.022705,840.755432 974.705444,839.386719 955.247681,837.933411 
	C927.858887,835.887756 906.463684,822.924133 891.382812,799.892822 
	C879.015930,781.006165 874.976379,760.277100 877.831970,737.970032 
	C881.029236,712.993530 892.026672,692.303284 912.288818,677.361145 
	C948.046265,650.992310 1005.321472,655.716858 1034.929199,693.764832 
	C1036.803711,696.173767 1039.366455,698.502930 1042.117798,699.698059 
	C1057.156128,706.230896 1072.733765,707.153259 1088.276611,701.974365 
	C1128.442139,688.591248 1144.665771,640.329468 1121.076172,605.052551 
	C1098.907227,571.900269 1052.971191,566.714172 1024.315063,594.298950 
	C1003.706604,614.136963 979.475586,623.703003 950.889526,619.869263 
	C928.969238,616.929565 910.763916,606.616211 896.527527,589.488892 
	C868.491638,555.759888 870.224121,505.707306 900.656982,474.188812 
	C907.569336,467.029938 913.062927,459.004639 916.515320,449.661316 
	C920.578735,438.664337 921.015198,427.402435 919.154846,415.426727 
	C917.152161,416.054596 915.732849,416.413300 914.377319,416.937134 
	C870.296936,433.972137 836.910828,481.967133 836.750854,529.232056 
	C836.683594,549.110474 832.581177,567.702942 820.797119,583.872375 
	C802.184265,609.411865 777.042114,622.816467 745.189453,619.520630 
	C707.956909,615.668335 677.103516,584.789429 671.819458,547.659302 
	C670.630310,539.303650 671.132812,530.717590 670.146484,522.321045 
	C664.843018,477.174744 642.458984,443.313263 602.548340,421.304565 
	C598.114197,418.859375 593.283264,417.133759 588.695679,415.100739 
	C587.991882,416.209778 587.632141,416.590240 587.491638,417.039276 
	C587.245361,417.826569 587.047119,418.648590 586.977966,419.468658 
	C585.238647,440.104156 590.601013,458.204346 605.301392,473.386902 
	C623.682068,492.370544 632.125000,515.292969 629.818970,541.646179 
	C625.865417,586.826660 588.617493,620.939392 543.403870,620.514648 
	C521.299316,620.306946 501.536652,612.512146 485.911865,596.655945 
	C462.382324,572.777954 427.292572,570.702881 402.522980,587.609558 
	C383.232544,600.776428 371.325714,627.544800 375.629791,650.664734 
z"/>
<path fill="#FFFEFE" opacity="1.000000" stroke="none" 
	d="
M375.595337,650.219177 
	C371.325714,627.544800 383.232544,600.776428 402.522980,587.609558 
	C427.292572,570.702881 462.382324,572.777954 485.911865,596.655945 
	C501.536652,612.512146 521.299316,620.306946 543.403870,620.514648 
	C588.617493,620.939392 625.865417,586.826660 629.818970,541.646179 
	C632.125000,515.292969 623.682068,492.370544 605.301392,473.386902 
	C590.601013,458.204346 585.238647,440.104156 586.977966,419.468658 
	C587.047119,418.648590 587.245361,417.826569 587.491638,417.039276 
	C587.632141,416.590240 587.991882,416.209778 588.695679,415.100739 
	C593.283264,417.133759 598.114197,418.859375 602.548340,421.304565 
	C642.458984,443.313263 664.843018,477.174744 670.146484,522.321045 
	C671.132812,530.717590 670.630310,539.303650 671.819458,547.659302 
	C677.103516,584.789429 707.956909,615.668335 745.189453,619.520630 
	C777.042114,622.816467 802.184265,609.411865 820.797119,583.872375 
	C832.581177,567.702942 836.683594,549.110474 836.750854,529.232056 
	C836.910828,481.967133 870.296936,433.972137 914.377319,416.937134 
	C915.732849,416.413300 917.152161,416.054596 919.154846,415.426727 
	C921.015198,427.402435 920.578735,438.664337 916.515320,449.661316 
	C913.062927,459.004639 907.569336,467.029938 900.656982,474.188812 
	C870.224121,505.707306 868.491638,555.759888 896.527527,589.488892 
	C910.763916,606.616211 928.969238,616.929565 950.889526,619.869263 
	C979.475586,623.703003 1003.706604,614.136963 1024.315063,594.298950 
	C1052.971191,566.714172 1098.907227,571.900269 1121.076172,605.052551 
	C1144.665771,640.329468 1128.442139,688.591248 1088.276611,701.974365 
	C1072.733765,707.153259 1057.156128,706.230896 1042.117798,699.698059 
	C1039.366455,698.502930 1036.803711,696.173767 1034.929199,693.764832 
	C1005.321472,655.716858 948.046265,650.992310 912.288818,677.361145 
	C892.026672,692.303284 881.029236,712.993530 877.831970,737.970032 
	C874.976379,760.277100 879.015930,781.006165 891.382812,799.892822 
	C906.463684,822.924133 927.858887,835.887756 955.247681,837.933411 
	C974.705444,839.386719 994.022705,840.755432 1012.136047,848.901733 
	C1043.517090,863.015015 1065.676270,886.033875 1079.043701,917.689758 
	C1080.820068,921.896362 1079.509033,922.667664 1075.431396,923.094971 
	C1053.463379,925.397034 1035.642700,917.448853 1020.065491,902.378906 
	C1003.649536,886.497498 983.435059,878.811951 960.761780,879.431030 
	C932.265198,880.209045 909.347595,892.529846 892.568970,915.822388 
	C881.284241,931.488098 876.601746,949.166382 876.330627,968.262512 
	C875.855530,1001.736023 863.625366,1030.355225 840.565063,1054.499390 
	C828.420166,1067.214966 814.158142,1076.746216 797.917297,1083.378296 
	C797.038208,1083.737305 796.078247,1083.898193 794.693359,1084.278320 
	C792.050781,1069.962280 793.856323,1056.749390 799.506226,1043.675415 
	C803.672546,1034.034302 811.288452,1027.273926 817.435303,1019.272766 
	C834.499268,997.061218 840.064270,972.318542 833.617615,944.947205 
	C829.972046,929.468811 821.581665,916.868164 811.498840,904.754211 
	C798.890869,889.606445 782.540527,882.050049 763.964844,879.342529 
	C734.308105,875.019836 708.574707,884.154114 688.473633,906.392029 
	C666.426514,930.782959 660.636353,959.314758 669.603577,991.012573 
	C672.765015,1002.187805 680.803772,1010.172852 686.731506,1019.539734 
	C692.576111,1028.775146 699.888062,1037.328735 704.227112,1047.204712 
	C709.091553,1058.276245 709.914246,1070.605591 707.499207,1083.819580 
	C702.502930,1081.595459 697.827942,1079.954834 693.581238,1077.556030 
	C649.970398,1052.921753 627.192932,1015.679321 625.524414,965.442444 
	C625.177673,955.003723 624.492920,944.279663 621.713501,934.314819 
	C619.601685,926.743530 614.614014,919.620422 609.630127,913.304626 
	C604.740906,907.108704 598.553650,901.798706 592.381104,896.782959 
	C579.845825,886.596985 565.361572,880.734741 549.246216,878.996765 
	C520.820312,875.931091 497.189636,885.816833 477.103058,905.493286 
	C465.060791,917.289673 450.099884,922.038879 433.667908,922.697510 
	C429.827576,922.851440 425.939331,921.810486 421.676636,921.268921 
	C426.431824,907.937988 432.855194,896.379517 441.231262,886.027893 
	C460.767090,861.884399 485.518677,846.032654 516.305969,840.403687 
	C523.446228,839.098145 530.766235,838.309387 538.018738,838.186829 
	C550.820618,837.970520 563.358765,836.007141 574.757507,830.501892 
	C585.058594,825.526917 595.750732,820.828979 603.947205,812.157776 
	C623.302002,791.681702 631.002075,767.539490 628.540833,739.576172 
	C627.094238,723.141235 621.242249,708.549316 612.280945,695.121033 
	C604.519348,683.490662 593.569641,675.259277 580.913696,669.558044 
	C550.021790,655.641907 520.758118,659.231934 493.279175,678.607483 
	C488.536957,681.951172 483.963806,685.665344 479.853485,689.752380 
	C459.779175,709.713135 422.398254,710.810547 399.142456,691.689697 
	C386.105988,680.971130 378.246307,667.332092 375.595337,650.219177 
M818.660950,689.888184 
	C817.704407,688.526672 816.777222,687.143433 815.786926,685.806946 
	C786.455017,646.220947 733.518982,640.625183 697.498840,673.297546 
	C656.987122,710.044067 656.927734,779.700989 697.376770,816.592346 
	C731.344299,847.572449 780.953796,844.365784 811.322266,809.801147 
	C838.217224,779.189819 844.088989,726.960022 818.660950,689.888184 
z"/>
<path fill="#BE1A35" opacity="1.000000" stroke="none" 
	d="
M818.847168,690.198364 
	C844.088989,726.960022 838.217224,779.189819 811.322266,809.801147 
	C780.953796,844.365784 731.344299,847.572449 697.376770,816.592346 
	C656.927734,779.700989 656.987122,710.044067 697.498840,673.297546 
	C733.518982,640.625183 786.455017,646.220947 815.786926,685.806946 
	C816.777222,687.143433 817.704407,688.526672 818.847168,690.198364 
z"/>
</svg>